<svg width="12" height="12" viewBox="0 0 12 12" fill="none" xmlns="http://www.w3.org/2000/svg">
<path d="M10.05 9.375H1.94996C1.64996 9.375 1.38746 9.225 1.23746 8.9625C1.08746 8.7 1.12496 8.4 1.27496 8.1375L1.68746 7.5C2.36246 6.4875 2.69996 5.325 2.69996 4.125C2.69996 2.7375 3.59996 1.4625 4.91246 1.0125C5.13746 0.6 5.54996 0.375 5.99996 0.375C6.44996 0.375 6.86246 0.6 7.08746 1.0125C8.39996 1.4625 9.29996 2.7375 9.29996 4.125C9.29996 5.325 9.63746 6.4875 10.3125 7.5L10.725 8.1375C10.875 8.4 10.9125 8.7 10.7625 8.9625C10.65 9.225 10.35 9.375 10.05 9.375Z" fill="#0081C5"/>
<path d="M4.16248 10.125C4.34998 10.9875 5.09998 11.625 5.99998 11.625C6.89998 11.625 7.64997 10.9875 7.83747 10.125H4.16248Z" fill="#0081C5"/>
</svg>
