<svg width="9" height="9" viewBox="0 0 9 9" fill="none" xmlns="http://www.w3.org/2000/svg">
<path d="M7.86991 4.17862H5.84132C5.76036 4.17862 5.69088 4.23647 5.6763 4.31611C5.6332 4.54996 5.54356 4.76709 5.40967 4.96144C5.36362 5.02814 5.37198 5.11811 5.42917 5.1753L6.86389 6.61002C6.89535 6.64165 6.93813 6.65918 6.98254 6.65918C6.98499 6.65918 6.98745 6.65918 6.98975 6.65902C7.03678 6.65705 7.08086 6.63525 7.11101 6.59937C7.64541 5.96304 7.96578 5.1889 8.03707 4.36085C8.04116 4.31398 8.02527 4.2676 7.99364 4.23302C7.96185 4.19828 7.91695 4.17862 7.86991 4.17862Z" fill="white"/>
<path d="M5.19186 5.41259C5.1345 5.3554 5.04454 5.34688 4.978 5.39309C4.69696 5.58662 4.36823 5.68888 4.02737 5.68888C3.10214 5.68888 2.3493 4.93604 2.3493 4.01081C2.3493 3.2016 2.92663 2.50825 3.72207 2.36191C3.80171 2.34733 3.85956 2.27784 3.85956 2.19689V0.168292C3.85956 0.12126 3.8399 0.0763583 3.80516 0.0445667C3.77058 0.0126113 3.72371 -0.00475941 3.67733 0.00114009C1.61531 0.178943 0 1.94026 0 4.01081C0 6.23147 1.80671 8.03818 4.02737 8.03818C4.9721 8.03818 5.89144 7.70306 6.61592 7.09443C6.65181 7.06411 6.67361 7.0202 6.67557 6.97316C6.67754 6.9263 6.65984 6.88057 6.62658 6.84731L5.19186 5.41259Z" fill="white"/>
<path d="M4.33268 2.36191C5.01145 2.48678 5.55141 3.02675 5.67628 3.70551C5.69087 3.78516 5.76035 3.843 5.84131 3.843H7.87007C7.9171 3.843 7.962 3.82334 7.99379 3.7886C8.02558 3.75402 8.04131 3.70764 8.03722 3.66078C7.86859 1.70871 6.32949 0.169603 4.37742 0.00114003C4.33186 -0.00312069 4.28417 0.0127751 4.2496 0.0445667C4.21486 0.0763582 4.19519 0.12126 4.19519 0.168292V2.19689C4.19519 2.27784 4.25304 2.34733 4.33268 2.36191Z" fill="white"/>
</svg>
