<svg width="4" height="4" viewBox="0 0 4 4" fill="none" xmlns="http://www.w3.org/2000/svg">
<g clip-path="url(#clip0_19_423)">
<path d="M2.00017 0C0.89527 0 0 0.895417 0 2.00039C0 3.10469 0.89527 4.00006 2.00017 4.00006C3.10523 4.00006 4 3.10469 4 2.00039C4 0.895362 3.10523 0 2.00017 0ZM2.87478 2.58531C2.95093 2.66394 2.92741 2.81049 2.82182 2.91287C2.71629 3.01524 2.56907 3.03484 2.49275 2.95621L1.99426 2.44296L1.4808 2.94141C1.40232 3.01756 1.25576 2.99371 1.15338 2.88835C1.051 2.78299 1.03156 2.63578 1.11003 2.55947L1.62349 2.06102L1.125 1.5476C1.04884 1.46913 1.07276 1.32242 1.17812 1.22004C1.28332 1.11784 1.43088 1.09834 1.50686 1.1767L2.00536 1.69006L2.51898 1.19183C2.59762 1.11552 2.74418 1.13937 2.8464 1.24473C2.94895 1.35008 2.96822 1.49746 2.88975 1.57377L2.37645 2.07206L2.87478 2.58531Z" fill="#0081C5"/>
</g>
<defs>
<clipPath id="clip0_19_423">
<rect width="4" height="4" fill="white"/>
</clipPath>
</defs>
</svg>
