<svg width="8" height="6" viewBox="0 0 8 6" fill="none" xmlns="http://www.w3.org/2000/svg">
<path fill-rule="evenodd" clip-rule="evenodd" d="M5.45829 5.30529C5.664 5.57089 5.91086 5.87146 5.91086 5.87146C7.18507 5.83032 7.79996 5.10724 7.96343 4.87808V3.95602C7.76913 2.11487 7.02172 0.733975 7.02172 0.733975C6.03429 -0.0209075 5.09486 5.80586e-05 5.09486 5.80586e-05L4.99886 0.111905C6.16457 0.475369 6.70629 0.9996 6.70629 0.9996C5.99315 0.601163 5.29372 0.405454 4.64229 0.32858C4.14857 0.272641 3.67543 0.286649 3.25715 0.342557C3.216 0.342557 3.18172 0.349545 3.14057 0.356534C2.90057 0.377499 2.31772 0.468381 1.58401 0.796872C1.33029 0.915707 1.17944 0.9996 1.17944 0.9996C1.17944 0.9996 1.74857 0.447385 2.98286 0.0839204L2.91429 5.80586e-05C2.91429 5.80586e-05 1.97486 -0.0209075 0.987434 0.733975C0.987434 0.733975 0 2.55832 0 4.80902C0 4.80902 0.576004 5.82254 2.09143 5.87146C2.09143 5.87146 2.34515 5.55691 2.55086 5.29132C1.68 5.02569 1.35086 4.46652 1.35086 4.46652C1.35086 4.46652 1.41943 4.51544 1.54286 4.58532C1.54649 4.58902 1.5501 4.59271 1.55473 4.5964C1.55888 4.5997 1.56382 4.60299 1.57029 4.60632C1.58057 4.61331 1.59086 4.61856 1.60114 4.62381C1.61143 4.62906 1.62172 4.63427 1.632 4.64126C1.80343 4.7391 1.97486 4.81601 2.13258 4.8789C2.41372 4.99075 2.74972 5.10257 3.14057 5.17947C3.65486 5.27731 4.25829 5.31228 4.91657 5.18646C5.23886 5.13055 5.568 5.03268 5.91086 4.88589C6.15086 4.79504 6.41829 4.66223 6.69943 4.47351C6.69943 4.47351 6.35658 5.04666 5.45829 5.30529ZM2.02286 3.38308C2.02286 2.95672 2.33143 2.60724 2.72229 2.60724C3.11314 2.60724 3.42857 2.95672 3.42171 3.38308C3.42171 3.80948 3.11314 4.15896 2.72229 4.15896C2.33829 4.15896 2.02286 3.80948 2.02286 3.38308ZM4.52572 3.38308C4.52572 2.95672 4.83429 2.60724 5.22514 2.60724C5.616 2.60724 5.92458 2.95672 5.92458 3.38308C5.92458 3.80948 5.616 4.15896 5.22514 4.15896C4.84115 4.15896 4.52572 3.80948 4.52572 3.38308Z" fill="white"/>
</svg>
