<svg width="12" height="12" viewBox="0 0 12 12" fill="none" xmlns="http://www.w3.org/2000/svg">
<path d="M2.11691 3.14042H9.883C10.1718 3.14018 10.4486 3.02539 10.6529 2.82124C10.8571 2.61709 10.972 2.34026 10.9723 2.0515V1.2223C10.972 0.93354 10.8571 0.656712 10.6529 0.452565C10.4486 0.248418 10.1718 0.13363 9.883 0.133389H2.11691C1.82815 0.13363 1.55128 0.248418 1.34705 0.452565C1.14283 0.656712 1.02794 0.93354 1.02759 1.2223V2.0515C1.02794 2.34026 1.14283 2.61709 1.34705 2.82124C1.55128 3.02539 1.82815 3.14018 2.11691 3.14042ZM5.84689 1.2223C5.92891 1.22226 6.0091 1.24655 6.07731 1.29209C6.14552 1.33763 6.1987 1.40238 6.2301 1.47815C6.26151 1.55391 6.26973 1.63729 6.25374 1.71774C6.23775 1.79818 6.19826 1.87207 6.14026 1.93007C6.08227 1.98806 6.00838 2.02756 5.92793 2.04355C5.84749 2.05954 5.76411 2.05131 5.68834 2.0199C5.61258 1.9885 5.54783 1.93533 5.50228 1.86712C5.45674 1.7989 5.43246 1.71872 5.4325 1.6367C5.43248 1.58227 5.44318 1.52838 5.464 1.47809C5.48482 1.42781 5.51534 1.38212 5.55383 1.34363C5.59231 1.30515 5.638 1.27463 5.68829 1.25381C5.73857 1.23299 5.79247 1.22228 5.84689 1.2223ZM4.18931 1.2223C4.27132 1.22226 4.35151 1.24655 4.41972 1.29209C4.48793 1.33763 4.54111 1.40238 4.57251 1.47815C4.60392 1.55391 4.61214 1.63729 4.59615 1.71774C4.58016 1.79818 4.54067 1.87207 4.48268 1.93007C4.42468 1.98806 4.35079 2.02756 4.27034 2.04355C4.1899 2.05954 4.10652 2.05131 4.03075 2.0199C3.95499 1.9885 3.89024 1.93533 3.8447 1.86712C3.79915 1.7989 3.77487 1.71872 3.77491 1.6367C3.77494 1.5268 3.81861 1.42142 3.89632 1.34371C3.97403 1.266 4.07941 1.22233 4.18931 1.2223ZM2.53131 1.2223C2.61332 1.22226 2.69351 1.24655 2.76172 1.29209C2.82994 1.33763 2.88311 1.40238 2.91451 1.47815C2.94592 1.55391 2.95415 1.63729 2.93816 1.71774C2.92217 1.79818 2.88267 1.87207 2.82468 1.93007C2.76668 1.98806 2.69279 2.02756 2.61235 2.04355C2.5319 2.05954 2.44852 2.05131 2.37276 2.0199C2.29699 1.9885 2.23224 1.93533 2.1867 1.86712C2.14116 1.7989 2.11687 1.71872 2.11691 1.6367C2.11694 1.5268 2.16061 1.42142 2.23832 1.34371C2.31603 1.266 2.42141 1.22233 2.53131 1.2223H2.53131Z" fill="white"/>
<path d="M2.11691 7.36173H9.883C10.1718 7.36149 10.4486 7.2467 10.6529 7.04256C10.8571 6.83841 10.972 6.56158 10.9723 6.27282V5.44362C10.972 5.15486 10.8571 4.87803 10.6529 4.67388C10.4486 4.46974 10.1718 4.35495 9.883 4.35471H2.11691C1.82815 4.35495 1.55128 4.46974 1.34705 4.67388C1.14283 4.87803 1.02794 5.15486 1.02759 5.44362V6.27282C1.02794 6.56158 1.14283 6.83841 1.34705 7.04256C1.55128 7.2467 1.82815 7.36149 2.11691 7.36173ZM5.84689 5.44362C5.92891 5.44358 6.0091 5.46787 6.07731 5.51341C6.14552 5.55895 6.1987 5.6237 6.2301 5.69947C6.26151 5.77523 6.26973 5.85861 6.25374 5.93906C6.23775 6.0195 6.19826 6.09339 6.14026 6.15139C6.08227 6.20938 6.00838 6.24887 5.92793 6.26487C5.84749 6.28086 5.76411 6.27263 5.68834 6.24122C5.61257 6.20982 5.54783 6.15664 5.50228 6.08843C5.45674 6.02022 5.43246 5.94003 5.4325 5.85802C5.43248 5.80359 5.44318 5.7497 5.464 5.69941C5.48482 5.64912 5.51534 5.60343 5.55383 5.56495C5.59231 5.52647 5.638 5.49594 5.68829 5.47512C5.73857 5.45431 5.79247 5.4436 5.84689 5.44362ZM4.18931 5.44362C4.27132 5.44358 4.35151 5.46787 4.41972 5.51341C4.48793 5.55895 4.54111 5.6237 4.57251 5.69947C4.60392 5.77523 4.61214 5.85861 4.59615 5.93906C4.58016 6.0195 4.54067 6.09339 4.48268 6.15139C4.42468 6.20938 4.35079 6.24887 4.27034 6.26487C4.1899 6.28086 4.10652 6.27263 4.03075 6.24122C3.95499 6.20982 3.89024 6.15664 3.8447 6.08843C3.79915 6.02022 3.77487 5.94003 3.77491 5.85802C3.77494 5.74812 3.81861 5.64274 3.89632 5.56503C3.97403 5.48732 4.07941 5.44365 4.18931 5.44362ZM2.53131 5.44362C2.61332 5.44358 2.69351 5.46787 2.76172 5.51341C2.82994 5.55895 2.88311 5.6237 2.91451 5.69946C2.94592 5.77523 2.95415 5.85861 2.93816 5.93905C2.92217 6.0195 2.88267 6.09339 2.82468 6.15139C2.76668 6.20938 2.69279 6.24887 2.61235 6.26487C2.5319 6.28086 2.44852 6.27263 2.37276 6.24122C2.29699 6.20982 2.23224 6.15664 2.1867 6.08843C2.14116 6.02022 2.11687 5.94003 2.11691 5.85802C2.11694 5.74812 2.16061 5.64274 2.23832 5.56503C2.31603 5.48732 2.42141 5.44365 2.53131 5.44362H2.53131Z" fill="white"/>
<path d="M2.04776 10.5683H1.35296C1.26621 10.5683 1.18302 10.6028 1.12168 10.6641C1.06034 10.7255 1.02588 10.8087 1.02588 10.8954C1.02588 10.9821 1.06034 11.0653 1.12168 11.1267C1.18302 11.188 1.26621 11.2225 1.35296 11.2225H2.04776C2.1345 11.2225 2.2177 11.188 2.27904 11.1267C2.34038 11.0653 2.37484 10.9821 2.37484 10.8954C2.37484 10.8087 2.34038 10.7255 2.27904 10.6641C2.2177 10.6028 2.1345 10.5683 2.04776 10.5683Z" fill="white"/>
<path d="M3.99319 10.5683H3.29839C3.21164 10.5683 3.12845 10.6028 3.06711 10.6641C3.00577 10.7255 2.97131 10.8087 2.97131 10.8954C2.97131 10.9821 3.00577 11.0653 3.06711 11.1267C3.12845 11.188 3.21164 11.2225 3.29839 11.2225H3.99319C4.07994 11.2225 4.16313 11.188 4.22447 11.1267C4.28581 11.0653 4.32027 10.9821 4.32027 10.8954C4.32027 10.8087 4.28581 10.7255 4.22447 10.6641C4.16313 10.6028 4.07994 10.5683 3.99319 10.5683Z" fill="white"/>
<path d="M8.70169 10.5683H8.00689C7.92014 10.5683 7.83695 10.6028 7.77561 10.6641C7.71427 10.7255 7.67981 10.8087 7.67981 10.8954C7.67981 10.9821 7.71427 11.0653 7.77561 11.1267C7.83695 11.188 7.92014 11.2225 8.00689 11.2225H8.70169C8.78844 11.2225 8.87163 11.188 8.93297 11.1267C8.99431 11.0653 9.02877 10.9821 9.02877 10.8954C9.02877 10.8087 8.99431 10.7255 8.93297 10.6641C8.87163 10.6028 8.78844 10.5683 8.70169 10.5683H8.70169Z" fill="white"/>
<path d="M10.6471 10.5683H9.95232C9.86558 10.5683 9.78238 10.6028 9.72104 10.6641C9.6597 10.7255 9.62524 10.8087 9.62524 10.8954C9.62524 10.9821 9.6597 11.0653 9.72104 11.1267C9.78238 11.188 9.86558 11.2225 9.95232 11.2225H10.6471C10.7339 11.2225 10.8171 11.188 10.8784 11.1267C10.9397 11.0653 10.9742 10.9821 10.9742 10.8954C10.9742 10.8087 10.9397 10.7255 10.8784 10.6641C10.8171 10.6028 10.7339 10.5683 10.6471 10.5683Z" fill="white"/>
<path d="M6.32711 9.98079V8.87604C6.32711 8.78929 6.29265 8.7061 6.23131 8.64476C6.16997 8.58342 6.08677 8.54896 6.00003 8.54896C5.91328 8.54896 5.83009 8.58342 5.76875 8.64476C5.70741 8.7061 5.67295 8.78929 5.67295 8.87604V9.98079C5.45751 10.0578 5.2762 10.2085 5.16097 10.4062C5.04574 10.6038 5.004 10.8358 5.0431 11.0613C5.0822 11.2867 5.19964 11.4911 5.3747 11.6384C5.54977 11.7857 5.77123 11.8665 6.00003 11.8665C6.22883 11.8665 6.45028 11.7857 6.62535 11.6384C6.80042 11.4911 6.91785 11.2867 6.95696 11.0613C6.99606 10.8358 6.95431 10.6038 6.83909 10.4062C6.72386 10.2085 6.54254 10.0578 6.32711 9.98079V9.98079Z" fill="white"/>
</svg>
