<svg width="6" height="4" viewBox="0 0 6 4" fill="none" xmlns="http://www.w3.org/2000/svg">
<g clip-path="url(#clip0_19_452)">
<path fill-rule="evenodd" clip-rule="evenodd" d="M0.75 1.6C0.3375 1.6 -5.42021e-08 1.24 -3.49691e-08 0.8C-1.57361e-08 0.36 0.3375 -2.47516e-07 0.75 -2.29485e-07C1.1625 -2.11454e-07 1.5 0.36 1.5 0.8C1.5 1.24 1.1625 1.6 0.75 1.6ZM3.75 0.8C3.75 0.36 3.4125 -1.13103e-07 3 -1.31134e-07C2.5875 -1.49165e-07 2.25 0.36 2.25 0.8C2.25 1.24 2.5875 1.6 3 1.6C3.4125 1.6 3.75 1.24 3.75 0.8ZM6 0.8C6 0.36 5.6625 -1.47526e-08 5.25 -3.27835e-08C4.8375 -5.08145e-08 4.5 0.36 4.5 0.8C4.5 1.24 4.8375 1.6 5.25 1.6C5.6625 1.6 6 1.24 6 0.8ZM4.5 3.2C4.5 3.64 4.8375 4 5.25 4C5.6625 4 6 3.64 6 3.2C6 2.76 5.6625 2.4 5.25 2.4C4.8375 2.4 4.5 2.76 4.5 3.2ZM3.75 3.2C3.75 2.76 3.4125 2.4 3 2.4C2.5875 2.4 2.25 2.76 2.25 3.2C2.25 3.64 2.5875 4 3 4C3.4125 4 3.75 3.64 3.75 3.2ZM1.5 3.2C1.5 2.76 1.1625 2.4 0.75 2.4C0.3375 2.4 -1.20643e-07 2.76 -1.39876e-07 3.2C-1.59109e-07 3.64 0.3375 4 0.75 4C1.1625 4 1.5 3.64 1.5 3.2Z" fill="white"/>
</g>
<defs>
<clipPath id="clip0_19_452">
<rect width="4" height="6" fill="white" transform="translate(6) rotate(90)"/>
</clipPath>
</defs>
</svg>
