<svg width="8" height="8" viewBox="0 0 8 8" fill="none" xmlns="http://www.w3.org/2000/svg">
<path d="M4.00003 0C1.79117 0 0 1.83381 0 4.09603C0 5.90577 1.14613 7.44114 2.73547 7.98275C2.93538 8.02067 3.00877 7.89389 3.00877 7.78571C3.00877 7.68803 3.00506 7.36537 3.00334 7.02311C1.89052 7.27089 1.65571 6.53983 1.65571 6.53983C1.47375 6.06639 1.21158 5.9405 1.21158 5.9405C0.848652 5.68628 1.23893 5.6915 1.23893 5.6915C1.6406 5.72039 1.85211 6.1136 1.85211 6.1136C2.20887 6.73979 2.78786 6.55875 3.01612 6.4541C3.05202 6.18936 3.15569 6.00867 3.27008 5.90638C2.38162 5.80281 1.44765 5.45159 1.44765 3.8821C1.44765 3.43491 1.60391 3.06952 1.85979 2.78267C1.81826 2.6795 1.68134 2.2629 1.89854 1.6987C1.89854 1.6987 2.23444 1.58861 2.99883 2.11856C3.31791 2.0278 3.66009 1.98229 4.00003 1.98073C4.33997 1.98229 4.68243 2.0278 5.00209 2.11856C5.76556 1.58861 6.101 1.6987 6.101 1.6987C6.31873 2.2629 6.18174 2.6795 6.14021 2.78267C6.39669 3.06952 6.55189 3.43491 6.55189 3.8821C6.55189 5.45532 5.61613 5.80172 4.72542 5.90312C4.86889 6.03023 4.99673 6.2795 4.99673 6.66165C4.99673 7.20971 4.99209 7.6508 4.99209 7.78571C4.99209 7.89471 5.06409 8.02243 5.26685 7.98221C6.85533 7.43998 8 5.90516 8 4.09603C8 1.83381 6.2091 0 4.00003 0ZM1.49814 5.83489C1.48933 5.85524 1.45807 5.86134 1.42959 5.84737C1.40057 5.83401 1.38428 5.80626 1.39368 5.78585C1.40229 5.76489 1.43363 5.75905 1.46257 5.7731C1.49165 5.78646 1.50821 5.81447 1.49814 5.83489ZM1.6949 6.01466C1.67582 6.03277 1.63853 6.02436 1.61323 5.99574C1.58706 5.96718 1.58216 5.929 1.6015 5.91062C1.62118 5.89251 1.65734 5.90098 1.68357 5.92954C1.70974 5.95843 1.71484 5.99635 1.6949 6.01466ZM1.82988 6.24468C1.80537 6.26212 1.7653 6.24577 1.74053 6.20934C1.71602 6.17292 1.71602 6.12924 1.74106 6.11174C1.7659 6.09424 1.80537 6.10998 1.83048 6.14613C1.85492 6.18316 1.85492 6.22684 1.82988 6.24468ZM2.05817 6.51108C2.03624 6.53584 1.98954 6.52919 1.95536 6.49541C1.92039 6.46238 1.91065 6.41551 1.93264 6.39075C1.95483 6.36592 2.0018 6.37291 2.03624 6.40642C2.07095 6.43938 2.08155 6.48659 2.05817 6.51108ZM2.3532 6.60101C2.34353 6.63309 2.29856 6.64768 2.25325 6.63404C2.20801 6.62 2.1784 6.58242 2.18754 6.55C2.19695 6.51772 2.24212 6.50252 2.28776 6.51711C2.33293 6.53108 2.36261 6.56838 2.3532 6.60101ZM2.68897 6.63916C2.69009 6.67294 2.65167 6.70095 2.60412 6.70156C2.55629 6.70264 2.51761 6.67531 2.51708 6.64207C2.51708 6.60796 2.55463 6.58021 2.60246 6.5794C2.65002 6.57845 2.68897 6.60558 2.68897 6.63916ZM3.01882 6.62621C3.02451 6.65917 2.99146 6.69302 2.94423 6.70204C2.8978 6.71072 2.85481 6.69037 2.84891 6.65768C2.84315 6.6239 2.8768 6.59006 2.92317 6.58131C2.97046 6.5729 3.01279 6.5927 3.01882 6.62621Z" fill="white"/>
</svg>
