<svg width="8" height="8" viewBox="0 0 8 8" fill="none" xmlns="http://www.w3.org/2000/svg">
<path d="M1.789 2.5H0V8H1.789V2.5Z" fill="white"/>
<path d="M6.662 2.5645C6.643 2.5585 6.625 2.552 6.605 2.5465C6.581 2.541 6.557 2.5365 6.5325 2.5325C6.4375 2.5135 6.3335 2.5 6.2115 2.5C5.1685 2.5 4.507 3.2585 4.289 3.5515V2.5H2.5V8H4.289V5C4.289 5 5.641 3.117 6.2115 4.5C6.2115 5.7345 6.2115 8 6.2115 8H8V4.2885C8 3.4575 7.4305 2.765 6.662 2.5645Z" fill="white"/>
<path d="M0.875 1.75C1.35825 1.75 1.75 1.35825 1.75 0.875C1.75 0.391751 1.35825 0 0.875 0C0.391751 0 0 0.391751 0 0.875C0 1.35825 0.391751 1.75 0.875 1.75Z" fill="white"/>
</svg>
