<svg width="55" height="12" viewBox="0 0 55 12" fill="none" xmlns="http://www.w3.org/2000/svg">
<g clip-path="url(#clip0_42_406)">
<path d="M6.07846 12.0015C9.4355 12.0015 12.1569 9.31484 12.1569 6.00073C12.1569 2.68662 9.4355 0 6.07846 0C2.72142 0 0 2.68662 0 6.00073C0 9.31484 2.72142 12.0015 6.07846 12.0015Z" fill="white"/>
<path d="M14.7089 9.77524V2.28453H18.0302C18.5898 2.27389 19.1488 2.32722 19.696 2.44344C20.1016 2.52776 20.4751 2.72273 20.774 3.00619C21.0712 3.31832 21.2756 3.70519 21.3647 4.1244C21.4978 4.72858 21.5582 5.34613 21.5449 5.96428C21.5584 6.60799 21.498 7.25114 21.3647 7.88142C21.2786 8.31587 21.0744 8.71902 20.774 9.04774C20.4776 9.33695 20.1035 9.53628 19.696 9.62216C19.1487 9.73767 18.5898 9.79098 18.0302 9.78107L14.7089 9.77524ZM17.754 3.88239H16.6272V8.17737H17.754C18.1264 8.18916 18.498 8.13535 18.8513 8.01846C18.9883 7.96243 19.1109 7.87696 19.2103 7.76827C19.3097 7.65958 19.3833 7.53039 19.4257 7.39011C19.5429 7.0752 19.601 6.59798 19.6 5.95845C19.6 5.35196 19.5419 4.90049 19.4257 4.60405C19.3803 4.4706 19.3051 4.34891 19.2057 4.24798C19.1062 4.14704 18.9851 4.06944 18.8513 4.02089C18.4958 3.91522 18.125 3.86842 17.754 3.88239Z" fill="white"/>
<path d="M22.3216 6.93525C22.3216 5.87876 22.549 5.11725 23.0039 4.65072C23.4587 4.18419 24.2301 3.95141 25.318 3.95238C26.0446 3.95238 26.6279 4.05492 27.068 4.26C27.496 4.4536 27.8356 4.79769 28.0205 5.22513C28.2367 5.76915 28.3373 6.35125 28.3159 6.93525C28.3369 7.51354 28.2364 8.08987 28.0205 8.62788C27.835 9.05175 27.495 9.39147 27.068 9.57989C26.6279 9.78108 26.0446 9.88167 25.318 9.88167C24.235 9.88167 23.4637 9.65084 23.0039 9.18917C22.5441 8.7275 22.3167 7.97619 22.3216 6.93525ZM25.318 8.26049C25.7802 8.26049 26.0948 8.15989 26.2587 7.9587C26.4227 7.75751 26.5039 7.4047 26.5039 6.90026C26.5039 6.41915 26.4222 6.07363 26.2587 5.86369C26.0948 5.65521 25.7802 5.55024 25.318 5.55024C24.8558 5.55024 24.5604 5.65521 24.3891 5.86369C24.2178 6.07217 24.1307 6.41478 24.1307 6.90026C24.1307 7.4047 24.2168 7.75751 24.3891 7.9587C24.5614 8.15989 24.871 8.26049 25.318 8.26049Z" fill="white"/>
<path d="M29.4531 8.04763V5.5619H28.7339V4.02381H29.6332L29.9921 2.61548H31.3714V4.02381H32.6784V5.5619H31.3714V7.63358C31.3577 7.78991 31.3867 7.94702 31.4556 8.08845C31.5102 8.17155 31.6387 8.21383 31.8396 8.21383C31.9666 8.21383 32.1024 8.20654 32.2457 8.19487C32.3889 8.18321 32.541 8.17009 32.6784 8.15405L32.7138 8.17738V9.71547C32.2164 9.83953 31.7041 9.89545 31.1913 9.88167C30.5602 9.88167 30.1127 9.73976 29.8489 9.45596C29.585 9.17215 29.4531 8.70271 29.4531 8.04763Z" fill="white"/>
<path d="M37.7245 3.95238C38.3512 3.93367 38.9768 4.0139 39.5779 4.19002C39.8006 4.26031 40.0068 4.37393 40.1844 4.52416C40.3619 4.6744 40.5072 4.85821 40.6116 5.06476C40.8321 5.48755 40.9419 6.09695 40.9409 6.89297V9.77524H39.2101L39.1511 9.23144H39.1141C38.9286 9.45141 38.6839 9.61515 38.4082 9.7038C38.0067 9.83525 37.5847 9.89547 37.1618 9.88167C35.7786 9.88167 35.0894 9.24262 35.0943 7.96453C35.0817 7.72365 35.1243 7.48307 35.2189 7.26069C35.3135 7.03831 35.4577 6.83986 35.6407 6.68011C36.004 6.37007 36.577 6.21456 37.3597 6.21358H39.1319C39.0758 5.88118 38.931 5.65958 38.6992 5.54441C38.4673 5.42923 38.0715 5.37237 37.5177 5.37237C37.1717 5.37243 36.8261 5.39826 36.484 5.44964C36.1443 5.50067 35.846 5.55899 35.5905 5.62168L35.5551 5.59835L35.5669 4.225C35.7681 4.16899 35.9722 4.12373 36.1783 4.08942C36.4249 4.04568 36.6878 4.01215 36.9625 3.98882C37.2372 3.9655 37.4838 3.95238 37.7245 3.95238ZM37.658 8.485C38.1542 8.485 38.5249 8.42377 38.773 8.3013C38.8876 8.25159 38.985 8.16992 39.0532 8.06632C39.1214 7.96272 39.1575 7.8417 39.157 7.71814V7.42656H37.8028C37.4498 7.42656 37.2047 7.47613 37.0644 7.57235C36.9987 7.61589 36.9453 7.67503 36.9089 7.74433C36.8725 7.81363 36.8544 7.89086 36.8561 7.9689C36.8478 8.05013 36.8636 8.132 36.9016 8.20451C36.9396 8.27701 36.9982 8.33699 37.0703 8.37711C37.2546 8.45895 37.4562 8.49595 37.658 8.485Z" fill="white"/>
<path d="M44.1249 11.9767H42.2051V4.01215H44.026L44.1219 4.82858V4.90001H44.1559C44.2675 4.6062 44.4714 4.35535 44.7378 4.18418C44.9903 4.02965 45.3551 3.95238 45.835 3.95238C46.6108 3.95238 47.1804 4.17544 47.5437 4.62155C47.907 5.06767 48.0925 5.74025 48.1004 6.63929C48.1162 7.43628 48.0344 8.07338 47.8553 8.5506C47.7129 8.97965 47.4167 9.34258 47.0224 9.57114C46.5769 9.79185 46.082 9.89768 45.584 9.87875C45.3075 9.88166 45.0316 9.85378 44.7614 9.79565C44.5524 9.75179 44.3492 9.68428 44.1559 9.59446L44.1323 9.60613L44.1249 11.9767ZM45.2044 5.5619C45.0613 5.55655 44.9186 5.5796 44.7846 5.62968C44.6507 5.67976 44.5283 5.75587 44.4247 5.85348C44.2278 6.04787 44.1293 6.37736 44.1293 6.84194V8.08407C44.4625 8.20905 44.817 8.26944 45.1734 8.26194C45.5485 8.26194 45.8188 8.17301 45.9812 7.99514C46.1437 7.81728 46.2234 7.46009 46.2234 6.92358C46.2234 6.45851 46.1584 6.11445 46.0314 5.8943C45.9044 5.67416 45.6327 5.5619 45.2044 5.5619Z" fill="white"/>
<path d="M51.0304 11.9767H49.1106V4.01215H50.9344L51.0304 4.82858V4.90001H51.054C51.1651 4.60635 51.3685 4.35551 51.6344 4.18418C51.8875 4.02965 52.2532 3.95238 52.7317 3.95238C53.5075 3.95238 54.077 4.17544 54.4403 4.62155C54.8036 5.06767 54.9897 5.74025 54.9986 6.63929C55.0133 7.43628 54.9311 8.07338 54.7519 8.5506C54.6096 8.97965 54.3134 9.34258 53.919 9.57114C53.4737 9.79227 52.9787 9.89812 52.4806 9.87875C52.2046 9.88166 51.9292 9.85379 51.6595 9.79565C51.4505 9.75202 51.2473 9.6845 51.054 9.59446L51.0304 9.60613V11.9767ZM52.1085 5.5619C51.9656 5.55658 51.8231 5.57965 51.6894 5.62973C51.5557 5.67982 51.4335 5.75591 51.3302 5.85348C51.1294 6.04738 51.0349 6.37687 51.0349 6.84194V8.08407C51.3676 8.20904 51.7216 8.26943 52.0775 8.26194C52.4526 8.26194 52.7223 8.17301 52.8867 7.99514C53.0512 7.81728 53.1329 7.46058 53.1319 6.92504C53.1319 6.45997 53.0684 6.11591 52.9399 5.89576C52.8114 5.67562 52.5323 5.5619 52.1085 5.5619Z" fill="white"/>
</g>
<defs>
<clipPath id="clip0_42_406">
<rect width="55" height="12" fill="white"/>
</clipPath>
</defs>
</svg>
