<svg width="5" height="5" viewBox="0 0 5 5" fill="none" xmlns="http://www.w3.org/2000/svg">
<path d="M0.288667 3.4724H2.34943V1.52744H0.288667C0.233343 1.52749 0.180298 1.54949 0.141178 1.5886C0.102058 1.62772 0.0800612 1.68077 0.0800171 1.73609V3.26376C0.0800608 3.31908 0.102058 3.37213 0.141178 3.41124C0.180298 3.45036 0.233343 3.47236 0.288667 3.4724Z" fill="#0081C5"/>
<path d="M1.17543 4.01852H0.306054C0.246105 4.01852 0.188612 4.04234 0.146222 4.08473C0.103832 4.12711 0.0800171 4.18461 0.0800171 4.24457C0.0800171 4.30449 0.103832 4.36199 0.146222 4.40438C0.188612 4.44676 0.246105 4.47059 0.306054 4.47059H1.17543C1.23538 4.47059 1.29287 4.44676 1.33526 4.40438C1.37765 4.36199 1.40147 4.30449 1.40147 4.24457C1.40147 4.18461 1.37765 4.12711 1.33526 4.08473C1.29287 4.04234 1.23538 4.01852 1.17543 4.01852H1.17543Z" fill="#0081C5"/>
<path d="M4.71133 1.52743H3.37528V1.27909C3.37537 1.20019 3.40676 1.12454 3.46255 1.06875C3.51834 1.01296 3.59399 0.981571 3.67289 0.981481H3.84474C3.87443 0.981481 3.90382 0.975634 3.93125 0.964274C3.95867 0.952915 3.9836 0.936267 4.00457 0.915278C4.02555 0.894286 4.04223 0.869368 4.05356 0.841946C4.06492 0.814521 4.07078 0.78513 4.07078 0.755446C4.07078 0.725763 4.06492 0.696368 4.05356 0.668943C4.04223 0.641521 4.02555 0.616603 4.00457 0.595611C3.9836 0.574622 3.95867 0.557974 3.93125 0.546615C3.90382 0.535255 3.87443 0.529408 3.84474 0.529408H3.67289C3.47701 0.529369 3.28895 0.606283 3.14924 0.743583C3.00954 0.606283 2.82148 0.529365 2.6256 0.529404H2.45374C2.3938 0.529404 2.3363 0.55322 2.29391 0.595611C2.25152 0.638001 2.22771 0.695493 2.22771 0.755443C2.22771 0.815392 2.25152 0.872884 2.29391 0.915274C2.3363 0.957665 2.3938 0.981477 2.45374 0.981477H2.6256C2.7045 0.981571 2.78014 1.01295 2.83594 1.06875C2.89173 1.12454 2.92312 1.20018 2.92321 1.27909V4.01848H2.45374C2.3938 4.01848 2.3363 4.0423 2.29391 4.08469C2.25152 4.12707 2.22771 4.18457 2.22771 4.24453C2.22771 4.30449 2.25152 4.36199 2.29391 4.40437C2.3363 4.44676 2.3938 4.47058 2.45374 4.47058H3.84474C3.90469 4.47058 3.96219 4.44676 4.00457 4.40437C4.04695 4.36199 4.07078 4.30449 4.07078 4.24453C4.07078 4.18457 4.04695 4.12707 4.00457 4.08469C3.96219 4.0423 3.90469 4.01848 3.84474 4.01848H3.37528V3.47239H4.71133C4.76668 3.47238 4.81973 3.4504 4.85887 3.41127C4.89801 3.37214 4.91996 3.31907 4.91996 3.26373V1.73609C4.91996 1.68075 4.89801 1.62768 4.85887 1.58855C4.81973 1.54942 4.76668 1.52744 4.71133 1.52743ZM4.5027 3.05509H3.37528V1.94473H4.5027V3.05509Z" fill="#0081C5"/>
</svg>
