<svg width="8" height="8" viewBox="0 0 8 8" fill="none" xmlns="http://www.w3.org/2000/svg">
<g clip-path="url(#clip0_43_429)">
<path d="M5.80741 0.502729C5.15104 0.16381 4.41122 0.00228092 3.6668 0.0353555C2.92237 0.0684301 2.20124 0.294869 1.58025 0.69054L0.971858 0.11193C0.916718 0.0585378 0.846302 0.0220864 0.76955 0.00720359C0.692799 -0.00767921 0.613173 -0.000322051 0.540783 0.0283409C0.468393 0.0570039 0.406505 0.10568 0.362975 0.168188C0.319446 0.230697 0.29624 0.304219 0.296302 0.379418V2.50036C0.296302 2.60099 0.337925 2.69749 0.412013 2.76865C0.486101 2.8398 0.586587 2.87977 0.691364 2.87977H2.89778C2.97625 2.88021 3.05308 2.8582 3.11847 2.81654C3.18386 2.77488 3.23485 2.71546 3.26494 2.64586C3.29503 2.57626 3.30286 2.49962 3.28743 2.42573C3.27199 2.35184 3.23399 2.28404 3.17828 2.23097L2.72791 1.79844C3.18694 1.58347 3.70229 1.50484 4.20809 1.5726C4.71389 1.64035 5.18717 1.85141 5.56744 2.1788C5.94771 2.50619 6.2177 2.93504 6.3429 3.41055C6.46811 3.88605 6.44283 4.38661 6.27032 4.84825C6.09781 5.30989 5.78588 5.71165 5.37442 6.00217C4.96295 6.29269 4.47063 6.45879 3.96038 6.47923C3.45012 6.49967 2.94511 6.37352 2.50989 6.11692C2.07466 5.86031 1.72899 5.4849 1.51704 5.03866C1.47437 4.9567 1.40226 4.89234 1.31403 4.85747C1.22581 4.8226 1.12742 4.81957 1.03704 4.84895L0.282475 5.05763C0.229948 5.0728 0.181286 5.09832 0.13959 5.13255C0.0978944 5.16678 0.0640772 5.20897 0.0402924 5.25644C0.0165077 5.30391 0.0032766 5.35562 0.00144179 5.40827C-0.000393011 5.46092 0.00920867 5.51336 0.0296354 5.56225C0.287238 6.14999 0.687985 6.66976 1.19819 7.07786C1.7084 7.48596 2.31316 7.77048 2.96164 7.90749C3.61012 8.0445 4.28337 8.03 4.9248 7.86521C5.56624 7.70043 6.15711 7.39017 6.64776 6.96051C7.13841 6.53086 7.5145 5.99436 7.74441 5.39612C7.97433 4.79788 8.05135 4.15537 7.96901 3.5226C7.88667 2.88984 7.64737 2.2853 7.27122 1.7598C6.89507 1.2343 6.39307 0.803198 5.80741 0.502729Z" fill="white"/>
</g>
<defs>
<clipPath id="clip0_43_429">
<rect width="8" height="8" fill="white"/>
</clipPath>
</defs>
</svg>
