<svg width="12" height="12" viewBox="0 0 12 12" fill="none" xmlns="http://www.w3.org/2000/svg">
<path d="M11.2293 6.91668L10.8015 6.45721C10.802 6.45318 10.8019 6.44924 10.8015 6.44324C10.8106 6.34078 10.8167 6.23756 10.8208 6.13424C10.8217 6.10443 10.8205 6.07256 10.821 6.04274C10.8219 5.96353 10.8208 5.88693 10.8172 5.81043C10.8157 5.77696 10.8139 5.74584 10.8118 5.71256C10.81 5.66146 10.8074 5.61103 10.8035 5.55768L11.2325 5.1014C11.4372 4.88343 11.8087 4.59403 11.695 4.3185L11.2253 3.17878C11.1116 2.90296 10.6446 2.96081 10.346 2.9504L9.71967 2.92781C9.67233 2.87118 9.62133 2.81737 9.5723 2.76271C9.57042 2.76065 9.56817 2.75746 9.56583 2.75456C9.54839 2.73628 9.53367 2.7164 9.51605 2.6984C9.48951 2.66953 9.45895 2.64196 9.43158 2.61384C9.39192 2.5739 9.35245 2.53331 9.31176 2.49468C9.24501 2.43046 9.17461 2.3699 9.10523 2.30981C9.10242 2.3069 9.09792 2.30446 9.09548 2.3025C9.09173 2.29884 9.08836 2.29471 9.08461 2.29096L9.06436 1.6635C9.05517 1.3664 9.11358 0.89859 8.83964 0.78459L7.69955 0.310121C7.42523 0.195934 7.13386 0.567653 6.91655 0.770434L6.45745 1.19906C6.35451 1.18875 6.25233 1.1834 6.15004 1.17946C6.12145 1.17834 6.09267 1.1789 6.06211 1.17909C5.9962 1.17853 5.92973 1.17656 5.86195 1.17918C5.77636 1.1819 5.69076 1.18725 5.60545 1.19465C5.59448 1.19521 5.58351 1.19521 5.57489 1.19596C5.5688 1.19718 5.5642 1.19625 5.55801 1.19746L5.10136 0.767528C4.88376 0.563996 4.59398 0.19134 4.31845 0.304871L3.17873 0.774559C2.90292 0.888184 2.96123 1.35628 2.95026 1.65403L2.92805 2.28131C2.9212 2.28646 2.91436 2.29359 2.90798 2.29987C2.83308 2.36231 2.75958 2.42681 2.68814 2.49393C2.6618 2.51981 2.63639 2.54587 2.61061 2.57203C2.55989 2.62143 2.50898 2.67243 2.46033 2.72484C2.43539 2.75203 2.41242 2.77959 2.38814 2.80734C2.35514 2.84315 2.32289 2.8785 2.2913 2.91628L1.66345 2.9355C1.36636 2.94478 0.898545 2.88637 0.784545 3.1604L0.309889 4.3004C0.195795 4.57481 0.566951 4.86515 0.769732 5.08246L1.19845 5.54165C1.19151 5.61271 1.18842 5.6834 1.18448 5.75531C1.18458 5.76196 1.18336 5.76899 1.18354 5.77565C1.17773 5.89753 1.17483 6.01921 1.17904 6.14053C1.18101 6.19378 1.18495 6.24609 1.18833 6.29924C1.19142 6.34218 1.19236 6.38587 1.19639 6.42871C1.19611 6.4334 1.19648 6.43771 1.19686 6.4409L0.767295 6.89878C0.56367 7.11599 0.190732 7.40493 0.304264 7.68037L0.773951 8.82009C0.88767 9.09609 1.35605 9.03862 1.6538 9.04949L2.2807 9.07077C2.28492 9.07696 2.28998 9.08062 2.29448 9.08699C2.35805 9.16331 2.4248 9.23784 2.49436 9.31284C2.51883 9.33918 2.5447 9.36177 2.56955 9.38765C2.62064 9.43949 2.67211 9.49077 2.72536 9.54074C2.75151 9.56343 2.77917 9.58715 2.80561 9.61162C2.84264 9.64434 2.87864 9.67771 2.91576 9.70752L2.93489 10.3353C2.94426 10.6324 2.88614 11.1013 3.16026 11.2154L4.30026 11.69C4.57476 11.8042 4.86492 11.4328 5.08223 11.23L5.5418 10.8023C5.54686 10.8024 5.55173 10.8018 5.5568 10.8019C5.61595 10.8084 5.67464 10.8107 5.73333 10.8137C5.75095 10.8152 5.76801 10.8153 5.7847 10.8171C5.81226 10.8179 5.8387 10.8201 5.86533 10.821C5.89683 10.8216 5.92823 10.8207 5.95973 10.8208C6.03633 10.8226 6.11301 10.821 6.18895 10.8175C6.22205 10.8164 6.25589 10.8139 6.28861 10.812C6.34026 10.8097 6.39005 10.8072 6.44086 10.8042L6.89826 11.2326C7.11614 11.4373 7.40442 11.8093 7.67986 11.6956L8.81967 11.2259C9.09558 11.1121 9.03858 10.6447 9.04908 10.3461L9.07064 9.72018C9.12436 9.67537 9.17611 9.62868 9.22608 9.58312C9.23311 9.57496 9.24117 9.56924 9.24886 9.56277C9.2663 9.54627 9.28495 9.5324 9.29995 9.51656C9.33033 9.48965 9.35648 9.45993 9.38414 9.43312C9.4237 9.39309 9.4657 9.35306 9.50592 9.31115C9.56433 9.24843 9.62311 9.18281 9.67992 9.11446C9.68639 9.10837 9.69145 9.10321 9.69698 9.09524C9.70176 9.09102 9.70467 9.08821 9.70739 9.08493L10.3347 9.06477C10.6318 9.05549 11.1007 9.11362 11.2148 8.83949L11.6894 7.69949C11.804 7.42527 11.432 7.13399 11.2293 6.91668ZM8.50776 5.99999C8.50776 7.38496 7.38492 8.50781 5.99995 8.50781C4.61498 8.50781 3.49214 7.38496 3.49214 5.99999C3.49214 4.61503 4.61498 3.49218 5.99995 3.49218C7.38492 3.49218 8.50776 4.61503 8.50776 5.99999Z" fill="white"/>
</svg>
