<svg width="8" height="7" viewBox="0 0 8 7" fill="none" xmlns="http://www.w3.org/2000/svg">
<path d="M7.15493 2.27653C6.82081 1.48447 6.22294 0.832389 5.46277 0.430956C4.70261 0.0295225 3.82696 -0.0965414 2.98442 0.0741558C2.14188 0.244853 1.38435 0.701797 0.840376 1.36745C0.296398 2.0331 -0.000521865 2.86646 6.8856e-07 3.72612V5.99446H0.000988347C0.00227072 6.07159 0.0228199 6.14716 0.0607658 6.21432C0.0987116 6.28147 0.152849 6.33807 0.218251 6.37896L0.64167 6.64366H1.26541C1.29171 6.64366 1.31776 6.63848 1.34207 6.62842C1.36637 6.61835 1.38846 6.6036 1.40706 6.585C1.42566 6.56639 1.44041 6.54431 1.45048 6.52001C1.46055 6.4957 1.46572 6.46965 1.46572 6.44334V4.39459C1.46572 4.36829 1.46055 4.34224 1.45048 4.31793C1.44041 4.29363 1.42566 4.27154 1.40706 4.25294C1.38846 4.23434 1.36637 4.21959 1.34207 4.20952C1.31776 4.19945 1.29171 4.19427 1.26541 4.19428H0.780121V3.72612C0.780121 2.94539 1.09026 2.19664 1.64232 1.64459C2.19438 1.09253 2.94312 0.782388 3.72385 0.782388C4.50457 0.782388 5.25332 1.09253 5.80538 1.64459C6.35744 2.19664 6.66758 2.94539 6.66758 3.72612V4.19428H6.18229C6.15599 4.19427 6.12994 4.19945 6.10563 4.20952C6.08133 4.21958 6.05924 4.23434 6.04064 4.25294C6.02204 4.27154 6.00728 4.29363 5.99722 4.31793C5.98715 4.34224 5.98197 4.36829 5.98197 4.39459V6.44334C5.98197 6.46965 5.98715 6.4957 5.99722 6.52001C6.00728 6.54431 6.02204 6.56639 6.04064 6.585C6.05924 6.6036 6.08133 6.61835 6.10563 6.62842C6.12994 6.63848 6.15599 6.64366 6.18229 6.64366H6.80603L7.22944 6.37896C7.29485 6.33807 7.34898 6.28147 7.38693 6.21432C7.42488 6.14716 7.44543 6.07158 7.44671 5.99446H7.4477V3.72611C7.44859 3.22815 7.34901 2.73512 7.15493 2.27653V2.27653Z" fill="white"/>
<path d="M3.42647 2.89557C3.06202 2.96675 2.73482 3.16533 2.50344 3.45576C2.27206 3.74619 2.15161 4.10949 2.16367 4.48062C2.16644 4.56148 2.17799 6.64366 2.17799 6.64366L3.19997 5.89867C3.42616 5.9792 3.66788 6.00647 3.90632 5.97836C4.14477 5.95025 4.37352 5.86752 4.57478 5.7366C4.77604 5.60568 4.94439 5.43009 5.06674 5.2235C5.18908 5.01691 5.26212 4.78489 5.28018 4.54547C5.29823 4.30605 5.26082 4.06569 5.17085 3.84309C5.08087 3.62049 4.94077 3.42164 4.76142 3.26201C4.58207 3.10238 4.36832 2.98628 4.13678 2.92272C3.90525 2.85917 3.66218 2.84988 3.42647 2.89557V2.89557ZM3.85152 5.36007C3.82685 5.38537 3.7952 5.40275 3.76061 5.41C3.72602 5.41725 3.69006 5.41405 3.6573 5.40079C3.62454 5.38754 3.59646 5.36484 3.57664 5.33558C3.55683 5.30631 3.54617 5.27182 3.54602 5.23648C3.54583 5.18966 3.56422 5.14468 3.59715 5.1114C3.63009 5.07812 3.67488 5.05926 3.7217 5.05895C3.75675 5.05855 3.79114 5.06853 3.82053 5.08762C3.84993 5.10672 3.87302 5.13408 3.88689 5.16627C3.90077 5.19846 3.90482 5.23404 3.89853 5.26852C3.89223 5.30301 3.87588 5.33486 3.85152 5.36007H3.85152ZM4.04245 4.35935L3.98747 4.40832C3.95769 4.42851 3.9323 4.4545 3.91283 4.48476C3.89335 4.51501 3.8802 4.54888 3.87416 4.58435C3.86977 4.64383 3.86665 4.70586 3.86665 4.77447C3.86752 4.77917 3.86743 4.784 3.86638 4.78867C3.86532 4.79333 3.86333 4.79774 3.86053 4.80161C3.85926 4.80311 3.85464 4.80854 3.832 4.80773C3.81768 4.80704 3.80255 4.80704 3.78823 4.80704H3.71281C3.66972 4.80704 3.62525 4.80704 3.58217 4.80773C3.56323 4.80773 3.55803 4.80242 3.55803 4.78359C3.55422 4.65077 3.55502 4.49969 3.604 4.39192C3.64339 4.31808 3.70176 4.25608 3.77309 4.21231C3.82856 4.17532 3.87796 4.12996 3.91955 4.07786C3.94718 4.04735 3.9652 4.00938 3.97137 3.96868C3.97753 3.92799 3.97156 3.88638 3.95421 3.84906C3.92964 3.80856 3.89474 3.77534 3.85309 3.75281C3.81143 3.73028 3.76452 3.71924 3.71719 3.72085C3.65361 3.7205 3.59175 3.74153 3.54154 3.78055C3.49134 3.81957 3.4557 3.87432 3.44033 3.93603C3.4267 3.97969 3.42289 3.98269 3.40626 3.98269C3.39411 3.98221 3.382 3.98101 3.36999 3.97911C3.29688 3.96917 3.22284 3.96017 3.14891 3.95116C3.12246 3.94804 3.11865 3.93834 3.12096 3.91859C3.15041 3.60615 3.45384 3.44317 3.73845 3.44317C3.89425 3.43904 4.04627 3.49157 4.16627 3.59102C4.2155 3.63261 4.25532 3.68421 4.28306 3.74238C4.3108 3.80055 4.32584 3.86397 4.32717 3.9284C4.32636 4.10894 4.17758 4.24003 4.04245 4.35935H4.04245Z" fill="white"/>
</svg>
