<svg width="9" height="8" viewBox="0 0 9 8" fill="none" xmlns="http://www.w3.org/2000/svg">
<path d="M5.24193 5.56481C5.23552 5.54039 5.22434 5.51749 5.20904 5.49741C5.19374 5.47734 5.17462 5.46049 5.15278 5.44784L4.43305 5.03222L4.43305 4.19983C4.43212 4.14915 4.41151 4.10083 4.37557 4.06509C4.33962 4.02936 4.29118 4.00903 4.2405 4.0084C4.18945 4.00846 4.14051 4.02876 4.10442 4.06486C4.06832 4.10096 4.04802 4.1499 4.04796 4.20094V5.03222L3.32807 5.44793C3.28427 5.47381 3.25242 5.51588 3.23938 5.56505C3.22634 5.61422 3.23317 5.66654 3.25839 5.71072C3.27535 5.73988 3.29971 5.76404 3.32901 5.78076C3.35831 5.79747 3.39151 5.80615 3.42524 5.8059C3.45874 5.80574 3.49163 5.79696 3.52075 5.7804L4.2405 5.36479L4.96044 5.78049C5.00457 5.80569 5.05685 5.81247 5.10595 5.79938C5.15505 5.78629 5.197 5.75437 5.22272 5.71054C5.23543 5.68874 5.24367 5.66462 5.24696 5.6396C5.25026 5.61458 5.24855 5.58916 5.24193 5.56481V5.56481Z" fill="white"/>
<path d="M5.70496 2.68536C5.69661 2.63659 5.67688 2.59048 5.64738 2.55076C5.61788 2.51103 5.57945 2.47882 5.53518 2.45671C5.23996 2.3095 4.59213 2.09208 4.59213 2.09208V1.87818L4.61016 1.86457C4.73592 1.76835 4.82003 1.62759 4.84516 1.47124L4.84879 1.44845H4.86637C4.91386 1.44842 4.96027 1.43426 4.99967 1.40776C5.03908 1.38126 5.06971 1.34362 5.08764 1.29964C5.109 1.26104 5.1202 1.21764 5.12019 1.17353C5.12019 1.14315 5.11442 1.11305 5.10318 1.08483C5.09754 1.05397 5.0804 1.02641 5.0552 1.00771L4.99543 0.971419L5.01029 0.906545C5.11826 0.435867 4.75363 0.0119187 4.26402 0.000236867C4.25211 1.00421e-05 4.24031 -9.96625e-05 4.22863 0.000123124C4.21695 -0.000102355 4.20515 9.369e-06 4.19324 0.000236867C3.70363 0.0119194 3.33899 0.435869 3.44697 0.906545L3.46182 0.971419L3.40205 1.00771C3.37686 1.02641 3.35971 1.05397 3.35408 1.08483C3.34284 1.11305 3.33706 1.14315 3.33707 1.17353C3.33706 1.21764 3.34826 1.26104 3.36962 1.29964C3.38755 1.34362 3.41817 1.38126 3.45758 1.40776C3.49699 1.43426 3.5434 1.44842 3.59089 1.44845H3.60847L3.6121 1.47124C3.63723 1.62758 3.72133 1.76835 3.8471 1.86456L3.86513 1.87817V2.09208C3.86513 2.09208 3.2173 2.30949 2.92208 2.45671C2.87781 2.47881 2.83937 2.51103 2.80987 2.55075C2.78038 2.59047 2.76065 2.63658 2.75229 2.68535C2.71712 2.94839 2.69724 3.21325 2.69275 3.47859H5.76451C5.76002 3.21325 5.74014 2.94839 5.70496 2.68536V2.68536Z" fill="white"/>
<path d="M8.3932 7.02158C8.38484 6.97281 8.36511 6.9267 8.33561 6.88698C8.30612 6.84725 8.26768 6.81504 8.22341 6.79293C7.92819 6.64572 7.28036 6.4283 7.28036 6.4283V6.2144L7.29839 6.20079C7.42416 6.10457 7.50826 5.96381 7.53339 5.80746L7.53702 5.78467H7.5546C7.60209 5.78464 7.6485 5.77048 7.68791 5.74398C7.72732 5.71748 7.75794 5.67984 7.77587 5.63586C7.79723 5.59726 7.80843 5.55386 7.80842 5.50975C7.80843 5.47937 7.80265 5.44927 7.79141 5.42105C7.78578 5.39019 7.76863 5.36263 7.74344 5.34393L7.68367 5.30764L7.69852 5.24277C7.8065 4.77209 7.44186 4.34814 6.95225 4.33646C6.94034 4.33623 6.92854 4.33612 6.91686 4.33634C6.90518 4.33612 6.89338 4.33623 6.88147 4.33646C6.39186 4.34814 6.02723 4.77209 6.1352 5.24277L6.15006 5.30764L6.09029 5.34393C6.06509 5.36263 6.04795 5.39019 6.04231 5.42105C6.03107 5.44927 6.0253 5.47937 6.0253 5.50975C6.02529 5.55386 6.03649 5.59726 6.05785 5.63586C6.07578 5.67984 6.10641 5.71748 6.14582 5.74398C6.18522 5.77048 6.23163 5.78464 6.27912 5.78467H6.2967L6.30033 5.80746C6.32546 5.96381 6.40956 6.10457 6.53533 6.20079L6.55336 6.2144V6.4283C6.55336 6.4283 5.90553 6.64572 5.61031 6.79293C5.56604 6.81504 5.5276 6.84725 5.49811 6.88698C5.46861 6.9267 5.44888 6.97281 5.44052 7.02158C5.40535 7.28461 5.38547 7.54947 5.38098 7.81481H8.45274C8.44825 7.54947 8.42837 7.28461 8.3932 7.02158V7.02158Z" fill="white"/>
<path d="M3.01221 7.02157C3.00385 6.97281 2.98413 6.92669 2.95463 6.88697C2.92513 6.84725 2.8867 6.81503 2.84243 6.79293C2.54721 6.64571 1.89938 6.42829 1.89938 6.42829V6.21439L1.91741 6.20078C2.04318 6.10456 2.12728 5.9638 2.15241 5.80746L2.15604 5.78466H2.17362C2.22111 5.78464 2.26752 5.77047 2.30693 5.74397C2.34633 5.71747 2.37696 5.67983 2.39489 5.63586C2.41625 5.59725 2.42745 5.55386 2.42744 5.50974C2.42745 5.47936 2.42167 5.44927 2.41043 5.42105C2.4048 5.39019 2.38765 5.36262 2.36246 5.34393L2.30269 5.30763L2.31754 5.24276C2.42552 4.77208 2.06088 4.34813 1.57127 4.33645C1.55936 4.33622 1.54756 4.33611 1.53588 4.33634C1.5242 4.33611 1.5124 4.33622 1.5005 4.33645C1.01088 4.34813 0.646246 4.77208 0.754218 5.24276L0.769076 5.30763L0.709307 5.34393C0.684115 5.36262 0.666966 5.39019 0.661333 5.42105C0.65009 5.44927 0.644317 5.47936 0.64432 5.50974C0.644309 5.55386 0.65551 5.59725 0.67687 5.63586C0.694803 5.67983 0.725426 5.71747 0.764834 5.74397C0.804242 5.77047 0.85065 5.78464 0.898141 5.78466H0.91572L0.91935 5.80746C0.944481 5.9638 1.02858 6.10457 1.15435 6.20079L1.17238 6.2144V6.4283C1.17238 6.4283 0.52455 6.64572 0.229327 6.79293C0.185061 6.81503 0.146622 6.84725 0.117125 6.88697C0.0876281 6.92669 0.0679015 6.97281 0.0595432 7.02157C0.0243685 7.28461 0.00448729 7.54946 0 7.8148H3.07176C3.06727 7.54946 3.04739 7.28461 3.01221 7.02157V7.02157Z" fill="white"/>
</svg>
