<svg width="9" height="10" viewBox="0 0 9 10" fill="none" xmlns="http://www.w3.org/2000/svg">
<path d="M3.37548 0C3.1794 0 3.01145 0.13979 3.01145 0.335858V0.868947C3.01145 1.06508 3.1794 1.20481 3.37548 1.20481H5.19678C5.39286 1.20481 5.56081 1.06502 5.56081 0.868947V0.335858C5.56081 0.139703 5.39286 1.73113e-07 5.19678 0H3.37548ZM4.28613 1.23298C1.90516 1.23298 0 3.13792 0 5.51911C0 7.87225 1.90516 9.80524 4.28613 9.80524C6.63909 9.80524 8.57226 7.87225 8.57226 5.51911C8.57226 3.13792 6.63909 1.23298 4.28613 1.23298ZM4.28839 2.11883C6.15476 2.11883 7.68303 3.65263 7.68303 5.51911C7.68303 7.38559 6.15476 8.91826 4.28839 8.91826C2.39654 8.91826 0.888107 7.38243 0.888107 5.51911C0.888107 3.65577 2.39654 2.11883 4.28839 2.11883ZM3.99761 2.42426C2.49638 2.5607 1.32702 3.74926 1.19128 5.23059L2.0174 5.22721C2.01853 5.2272 2.01966 5.2272 2.02078 5.22721C2.04016 5.2279 2.05942 5.23054 2.07826 5.2351C2.0878 5.23762 2.09721 5.24063 2.10644 5.24411C2.11564 5.24741 2.12467 5.25117 2.13349 5.25538C2.15977 5.26746 2.18408 5.28342 2.20562 5.30272C2.21268 5.30878 2.21945 5.31517 2.2259 5.32188C2.23907 5.33607 2.25078 5.35155 2.26084 5.36809C2.27559 5.39262 2.2866 5.41921 2.29353 5.44698C2.30273 5.48461 2.30426 5.52371 2.29803 5.56194C2.29499 5.58079 2.29008 5.59929 2.28338 5.61716C2.27686 5.63523 2.26856 5.65259 2.25859 5.66901C2.24852 5.68554 2.23682 5.70102 2.22365 5.71522C2.21686 5.72234 2.20971 5.72911 2.20224 5.7355C2.195 5.7415 2.18748 5.74714 2.17969 5.75241C2.1717 5.75809 2.16343 5.76335 2.1549 5.76819C2.14647 5.77275 2.13782 5.77689 2.12898 5.78058C2.12016 5.7848 2.11113 5.78856 2.10193 5.79186C2.07464 5.80092 2.04615 5.80586 2.0174 5.80651H1.19128C1.32653 7.28833 2.49601 8.47748 3.99761 8.61396V7.78897C3.99826 7.73985 4.01143 7.69171 4.03589 7.64911C4.06035 7.60651 4.09527 7.57086 4.13736 7.54553C4.15378 7.53556 4.17114 7.52725 4.18921 7.52073C4.19809 7.51766 4.20712 7.51503 4.21626 7.51284C4.22553 7.51012 4.23493 7.50786 4.24443 7.50608C4.25415 7.50483 4.26393 7.50408 4.27373 7.50383V7.5027C4.28312 7.50224 4.29252 7.50224 4.30191 7.5027C4.33083 7.50443 4.35933 7.51051 4.38644 7.52073C4.42279 7.53388 4.45614 7.55419 4.48449 7.58047C4.49832 7.59384 4.51078 7.60857 4.52168 7.62442C4.53276 7.64034 4.54219 7.65733 4.54986 7.67514C4.55369 7.68398 4.55708 7.69301 4.56 7.70219C4.56907 7.72948 4.57401 7.75797 4.57465 7.78671V8.61396C6.05489 8.47571 7.24214 7.287 7.37986 5.80651C7.37573 5.80697 7.3716 5.80735 7.36746 5.80763H6.55486C6.55374 5.80764 6.55261 5.80764 6.55148 5.80763C6.53207 5.80657 6.51281 5.80355 6.494 5.79862C6.45624 5.79003 6.4206 5.77393 6.38919 5.75128C6.38138 5.74565 6.37386 5.73963 6.36665 5.73325C6.345 5.71398 6.32639 5.69157 6.31142 5.66675C6.30651 5.65871 6.302 5.65044 6.2979 5.64196C6.28557 5.61593 6.27722 5.58819 6.2731 5.55968C6.27051 5.54102 6.26976 5.52215 6.27085 5.50333C6.27247 5.47403 6.27855 5.44515 6.28888 5.41768C6.29218 5.40848 6.29594 5.39945 6.30015 5.39063C6.30425 5.38215 6.30877 5.37387 6.31368 5.36583C6.31891 5.35767 6.32455 5.34977 6.33058 5.34217C6.34231 5.32699 6.35553 5.31302 6.37003 5.30047C6.37726 5.29447 6.38478 5.28883 6.39257 5.28356C6.42407 5.26131 6.45971 5.2456 6.49738 5.23735C6.51627 5.23318 6.53552 5.23091 6.55486 5.23059L7.36746 5.23172C7.36859 5.23171 7.36971 5.23171 7.37084 5.23172C7.37385 5.23204 7.37686 5.23242 7.37986 5.23284C7.24264 3.75182 6.05526 2.56254 4.57465 2.42426V3.25038C4.5742 3.27089 4.57155 3.29129 4.56676 3.31124C4.56458 3.32038 4.56194 3.32941 4.55888 3.33829C4.55279 3.3567 4.54486 3.37444 4.53521 3.39126C4.53037 3.39979 4.52511 3.40806 4.51943 3.41606C4.5138 3.42387 4.50778 3.43139 4.5014 3.4386C4.48879 3.45271 4.47482 3.46554 4.4597 3.47692C4.44423 3.4887 4.42762 3.4989 4.41011 3.50735C4.39276 3.51551 4.37463 3.52193 4.35601 3.52651C4.34674 3.52923 4.33733 3.53149 4.32783 3.53327C4.31811 3.53452 4.30833 3.53527 4.29853 3.53552C4.27927 3.53594 4.26001 3.53443 4.24105 3.53101C4.20309 3.52512 4.16669 3.51171 4.13398 3.49157C4.12579 3.48597 4.11789 3.47995 4.11031 3.47354C4.07957 3.44997 4.05389 3.42046 4.0348 3.38675C4.02554 3.36989 4.01799 3.35215 4.01226 3.33378C4.00633 3.31582 4.00218 3.29733 3.99986 3.27856C3.99865 3.26921 3.9979 3.2598 3.99761 3.25038V2.42426ZM4.28388 3.76769C4.32234 3.76754 4.36044 3.77508 4.39595 3.78986C4.43146 3.80465 4.46365 3.82638 4.49064 3.85379C4.51762 3.88119 4.53886 3.91372 4.55309 3.94945C4.56733 3.98518 4.57427 4.02339 4.57353 4.06185V5.36133L5.64196 6.42976C5.67229 6.45546 5.69699 6.48716 5.71449 6.52286C5.732 6.55856 5.74194 6.59749 5.74369 6.63721C5.74543 6.67694 5.73895 6.71659 5.72465 6.75369C5.71035 6.79079 5.68854 6.82453 5.66058 6.8528C5.63262 6.88107 5.59912 6.90326 5.56218 6.91797C5.52524 6.93268 5.48566 6.9396 5.44592 6.9383C5.40618 6.93699 5.36714 6.92748 5.33125 6.91037C5.29536 6.89326 5.26339 6.86892 5.23735 6.83887L4.16441 5.76593C4.11843 5.74452 4.07891 5.71137 4.04982 5.66982C4.02073 5.62827 4.00311 5.57979 3.99874 5.52926C3.99162 5.49278 3.99162 5.45528 3.99874 5.41881V4.06185C3.99799 4.02377 4.0048 3.98593 4.01875 3.95049C4.03271 3.91505 4.05354 3.88273 4.08005 3.85539C4.10655 3.82804 4.13821 3.80621 4.1732 3.79116C4.20818 3.77611 4.2458 3.76814 4.28388 3.76769V3.76769Z" fill="white"/>
</svg>
