<svg width="9" height="8" viewBox="0 0 9 8" fill="none" xmlns="http://www.w3.org/2000/svg">
<path fill-rule="evenodd" clip-rule="evenodd" d="M2.8305 7.9999C6.22665 7.9999 8.08425 4.92168 8.08425 2.25258C8.08425 2.16496 8.08425 2.07799 8.07885 1.99135C8.4402 1.70583 8.75205 1.35133 9 0.945698C8.6634 1.10913 8.30565 1.21631 7.9398 1.26357C8.325 1.01103 8.61345 0.614288 8.7516 0.146138C8.3889 0.381443 7.99245 0.547511 7.5789 0.636616C6.8796 -0.176619 5.71005 -0.21602 4.9662 0.54897C4.48695 1.04222 4.2831 1.77766 4.43205 2.47915C2.9475 2.39743 1.5642 1.63048 0.6264 0.368794C0.13635 1.2918 0.387 2.47214 1.19835 3.06484C0.9045 3.05548 0.61695 2.96894 0.36 2.8124V2.83803C0.36045 3.79944 0.9801 4.62726 1.8414 4.81777C1.5696 4.89899 1.2843 4.91077 1.008 4.85219C1.24965 5.67527 1.9431 6.23902 2.73285 6.25527C2.079 6.81744 1.27125 7.1227 0.43965 7.12172C0.29295 7.12123 0.14625 7.11187 0 7.09267C0.84465 7.68537 1.827 7.99991 2.8305 7.99843" fill="white"/>
</svg>
