<svg width="6" height="6" viewBox="0 0 6 6" fill="none" xmlns="http://www.w3.org/2000/svg">
<g clip-path="url(#clip0_4_422)">
<path d="M5.09283 0.0839245L4.66221 0.510667C4.22933 0.226905 3.72985 0.0587136 3.21213 0.0223781C2.69441 -0.0139575 2.176 0.082794 1.70708 0.303264C1.23817 0.523735 0.83464 0.860454 0.535571 1.28082C0.236503 1.70118 0.0520272 2.19095 5.61611e-06 2.7027C-0.00359261 2.74216 0.00116419 2.78192 0.0139713 2.81945C0.0267785 2.85698 0.0473537 2.89144 0.0743791 2.92064C0.101404 2.94983 0.134284 2.97311 0.170913 2.98898C0.207541 3.00485 0.247111 3.01296 0.287087 3.0128H0.871297C0.940307 3.01086 1.0063 2.98433 1.05718 2.93809C1.10806 2.89185 1.14042 2.82899 1.14833 2.76102C1.18836 2.47133 1.29714 2.19517 1.46574 1.95521C1.63434 1.71526 1.85796 1.51834 2.11824 1.38063C2.37852 1.24291 2.66805 1.16833 2.96305 1.16299C3.25806 1.15765 3.55014 1.22172 3.81532 1.34993L3.48948 1.67283C3.44899 1.71262 3.42138 1.76346 3.41016 1.81887C3.39895 1.87427 3.40464 1.93173 3.4265 1.98392C3.44837 2.03611 3.48542 2.08066 3.53294 2.1119C3.58046 2.14314 3.63629 2.15964 3.69331 2.15932H5.29666C5.3728 2.15932 5.44582 2.12934 5.49965 2.07599C5.55349 2.02264 5.58374 1.95027 5.58374 1.87482V0.284494C5.58378 0.228107 5.56692 0.172979 5.53529 0.126109C5.50366 0.0792382 5.45868 0.0427399 5.40608 0.0212478C5.35348 -0.000244396 5.29561 -0.00576096 5.23984 0.0053985C5.18407 0.016558 5.1329 0.0438901 5.09283 0.0839245Z" fill="#006EA8"/>
<path d="M5.71149 2.9872H5.12871C5.05942 2.98842 4.99292 3.01444 4.94147 3.06046C4.89003 3.10647 4.85711 3.16937 4.84881 3.23756C4.78773 3.68051 4.5668 4.08653 4.22689 4.38049C3.88699 4.67444 3.45114 4.83641 3.00001 4.83642C2.71728 4.83678 2.43829 4.77252 2.1847 4.64865L2.5091 4.32575C2.549 4.28597 2.57615 4.23538 2.58713 4.18035C2.59811 4.12532 2.59243 4.06831 2.5708 4.01647C2.54917 3.96463 2.51256 3.92029 2.46557 3.88901C2.41858 3.85773 2.36331 3.84092 2.3067 3.84069H0.703356C0.627218 3.84069 0.554197 3.87066 0.500359 3.92401C0.446521 3.97737 0.416275 4.04973 0.416275 4.12518V5.71408C0.41623 5.7703 0.432992 5.82527 0.464444 5.87205C0.495896 5.91883 0.540629 5.95533 0.592996 5.97694C0.645363 5.99855 0.703016 6.00431 0.758679 5.99347C0.814342 5.98264 0.865518 5.95571 0.905749 5.91608L1.34355 5.48222C1.83454 5.80478 2.41092 5.97604 3.00001 5.9744C3.74537 5.97452 4.46435 5.70097 5.01812 5.20656C5.5719 4.71216 5.92119 4.03196 5.99857 3.2973C6.00217 3.25784 5.99741 3.21808 5.9846 3.18055C5.9718 3.14302 5.95122 3.10856 5.9242 3.07937C5.89717 3.05017 5.86429 3.0269 5.82766 3.01103C5.79103 2.99515 5.75147 2.98704 5.71149 2.9872Z" fill="#006EA8"/>
</g>
<defs>
<clipPath id="clip0_4_422">
<rect width="6" height="6" fill="white"/>
</clipPath>
</defs>
</svg>
