<svg xmlns="http://www.w3.org/2000/svg" viewBox="0 0 372.43 82.31"><defs><style>.cls-1{fill:#0081c5;}.cls-2{fill:#1d1d1b;}</style></defs><g id="Camada_2" data-name="Camada 2"><g id="Camada_1-2" data-name="Camada 1"><circle class="cls-1" cx="41.16" cy="41.16" r="41.16"/><path class="cls-2" d="M99.6,67.05V15.67h22.49a49.13,49.13,0,0,1,11.28,1.09,15,15,0,0,1,7.3,3.86,16,16,0,0,1,4,7.67,54,54,0,0,1,1.22,12.62,58.45,58.45,0,0,1-1.22,13.15,16.75,16.75,0,0,1-4,8,14.77,14.77,0,0,1-7.3,3.94,49.69,49.69,0,0,1-11.28,1.09Zm20.62-40.42h-7.63V56.09h7.63A21.24,21.24,0,0,0,127.65,55a6.76,6.76,0,0,0,3.89-4.31q1.19-3.24,1.18-9.82,0-6.24-1.18-9.29a6.45,6.45,0,0,0-3.89-4A22.76,22.76,0,0,0,120.22,26.63Z"/><path class="cls-2" d="M151.15,47.57q0-10.87,4.62-15.67t15.67-4.79q7.38,0,11.85,2.11a12.82,12.82,0,0,1,6.45,6.62,29.23,29.23,0,0,1,2,11.73,28.73,28.73,0,0,1-2,11.61,12.65,12.65,0,0,1-6.45,6.53q-4.47,2.07-11.85,2.07-11,0-15.67-4.75T151.15,47.57Zm20.29,9.09c3.13,0,5.26-.69,6.37-2.07s1.66-3.8,1.66-7.26q0-4.95-1.66-7.11c-1.11-1.43-3.24-2.15-6.37-2.15s-5.13.72-6.29,2.15S163.4,44,163.4,47.33q0,5.19,1.75,7.26T171.44,56.66Z"/><path class="cls-2" d="M199.44,55.2V38.15h-4.87V27.6h6.09l2.43-9.66h9.34V27.6h8.85V38.15h-8.85V52.36a6,6,0,0,0,.57,3.12c.37.57,1.24.86,2.6.86.86,0,1.78-.05,2.75-.13s2-.17,2.93-.28l.24.16V66.64a37.88,37.88,0,0,1-10.31,1.14q-6.41,0-9.09-2.92T199.44,55.2Z"/><path class="cls-2" d="M255.45,27.11A39.87,39.87,0,0,1,268,28.74a11.86,11.86,0,0,1,7,6q2.24,4.35,2.23,12.54V67.05H265.51l-.4-3.73h-.25a10.42,10.42,0,0,1-4.78,3.24,24.27,24.27,0,0,1-8.44,1.22q-14.05,0-14-13.15a11,11,0,0,1,3.7-8.81q3.69-3.19,11.64-3.2h12c-.38-2.28-1.36-3.8-2.93-4.59s-4.25-1.18-8-1.18a46.6,46.6,0,0,0-7,.53c-2.3.35-4.32.75-6.05,1.18l-.24-.16.08-9.42a39.35,39.35,0,0,1,4.14-.93c1.67-.3,3.45-.53,5.31-.69S253.82,27.11,255.45,27.11ZM255,58.2c3.36,0,5.87-.42,7.55-1.26a4.35,4.35,0,0,0,2.6-4v-2h-9.17c-2.39,0-4.05.34-5,1a3.19,3.19,0,0,0-1.41,2.72,2.88,2.88,0,0,0,1.45,2.8A8.56,8.56,0,0,0,255,58.2Z"/><path class="cls-2" d="M298.79,82.15h-13V27.52h12.33l.65,5.6v.49H299a10.08,10.08,0,0,1,3.94-4.91c1.71-1.06,4.18-1.59,7.43-1.59q7.88,0,11.57,4.59t3.77,13.84q.16,8.2-1.66,13.11a12.7,12.7,0,0,1-5.64,7,20,20,0,0,1-9.74,2.11,24.91,24.91,0,0,1-5.57-.57,18.82,18.82,0,0,1-4.1-1.38l-.16.08Zm7.31-44a7.25,7.25,0,0,0-5.28,2q-2,2-2,6.78v8.52a18.78,18.78,0,0,0,7.07,1.22c2.54,0,4.37-.61,5.47-1.83S313,51.17,313,47.49c0-3.19-.44-5.55-1.3-7.06S309,38.15,306.1,38.15Z"/><path class="cls-2" d="M345.55,82.15h-13V27.52H344.9l.65,5.6v.49h.16a10.07,10.07,0,0,1,3.93-4.91q2.57-1.59,7.43-1.59,7.88,0,11.57,4.59t3.78,13.84q.15,8.2-1.67,13.11a12.7,12.7,0,0,1-5.64,7,19.93,19.93,0,0,1-9.74,2.11,24.82,24.82,0,0,1-5.56-.57,18.64,18.64,0,0,1-4.1-1.38l-.16.08Zm7.3-44a7.23,7.23,0,0,0-5.27,2c-1.36,1.33-2,3.59-2,6.78v8.52a18.73,18.73,0,0,0,7.06,1.22q3.81,0,5.48-1.83t1.66-7.34c0-3.19-.43-5.55-1.3-7.06S355.72,38.15,352.85,38.15Z"/></g></g></svg>