<svg width="29" height="22" viewBox="0 0 29 22" fill="none" xmlns="http://www.w3.org/2000/svg">
<path d="M28.3111 17.7178C28.235 17.0196 28.1244 16.0172 28.0138 15.0147C27.6197 11.5304 27.2948 8.03911 26.804 4.5755C26.2578 0.710919 21.9922 -1.211 18.66 0.821534C18.3558 1.0082 18.0585 1.09807 17.699 1.09807C15.3831 1.09116 13.0671 1.08424 10.758 1.10498C10.3017 1.1119 9.92839 0.994368 9.54124 0.766227C6.18134 -1.22483 1.91578 0.876841 1.45259 4.74834C1.0447 8.20503 0.636808 11.6617 0.270399 15.1253C0.139045 16.3697 -0.151317 17.6141 0.0975645 18.8862C0.491627 20.9326 2.3375 22.2115 4.30781 21.7207C5.71814 21.3681 6.54775 20.3518 7.09391 19.0798C7.7092 17.628 8.28992 16.1623 8.87065 14.6898C9.002 14.3649 9.13335 14.192 9.54124 14.1713C10.6958 14.1021 11.5323 13.5007 11.9471 12.4291C12.1061 12.0281 12.3066 11.9383 12.6937 11.9521C13.6754 11.9797 14.6641 11.9866 15.6527 11.959C16.0329 11.9521 16.1988 12.0627 16.344 12.4222C16.7865 13.4799 17.6022 14.1021 18.7568 14.1713C19.1508 14.192 19.3168 14.3372 19.4412 14.676C19.7177 15.4295 20.015 16.1692 20.333 16.9021C20.8101 18.0151 21.135 19.1904 21.8747 20.1859C22.9878 21.693 24.3566 22.1631 26.0158 21.5963C27.5713 21.0501 28.3387 19.8748 28.3111 17.7178ZM6.31961 8.20503C5.73888 8.22577 5.44852 7.93541 5.50383 7.36851C5.55222 6.89148 5.35865 6.78087 4.93002 6.81544C4.34929 6.86383 4.0935 6.5389 4.12115 5.972C4.12807 5.74386 4.12807 5.51572 4.12115 5.28758C4.08659 4.65846 4.35621 4.34045 5.01298 4.38193C5.19964 4.38884 5.45544 4.51328 5.50383 4.1123C5.64901 3.00616 5.66975 3.01308 6.73441 3.00616C7.78525 3.00616 7.80599 2.99925 7.92351 4.08465C7.96499 4.4718 8.19314 4.39575 8.39362 4.38193C9.08496 4.33353 9.3615 4.66537 9.3131 5.33597C9.29928 5.56411 9.29928 5.79226 9.3131 6.0204C9.33384 6.56656 9.06422 6.85692 8.53189 6.81544C8.06178 6.78087 7.87512 6.90531 7.93043 7.40308C7.98573 7.94232 7.68154 8.20503 7.14921 8.19811C6.87268 8.19811 6.59614 8.1912 6.31961 8.20503ZM9.34767 13.0375C8.39362 13.0513 7.61241 12.2632 7.61932 11.3022C7.62624 10.362 8.3798 9.61536 9.32002 9.61536C10.2464 9.61536 11.0138 10.3758 11.0207 11.3161C11.0345 12.2424 10.2741 13.0167 9.34767 13.0375ZM19.1508 4.38884C19.7661 4.38193 20.2985 4.90734 20.2916 5.51572C20.2916 6.09645 19.7938 6.60804 19.2062 6.62878C18.577 6.64952 18.0516 6.16558 18.0309 5.54337C18.0171 4.92808 18.5356 4.39575 19.1508 4.38884ZM20.6925 11.3714C20.658 12.2978 19.8698 13.0513 18.9434 13.0375C18.0171 13.0237 17.2635 12.2494 17.2704 11.3091C17.2773 10.3758 18.0378 9.61536 18.9711 9.61536C19.9182 9.60844 20.7271 10.4311 20.6925 11.3714ZM21.4945 8.95167C20.893 8.95859 20.3953 8.48848 20.3607 7.89392C20.3261 7.28555 20.8308 6.73939 21.4461 6.71865C22.0683 6.69791 22.6006 7.19567 22.6214 7.81096C22.6352 8.42626 22.1167 8.95167 21.4945 8.95167ZM21.5636 4.20909C20.9483 4.19526 20.4436 3.64911 20.4644 3.03382C20.492 2.44618 20.9967 1.94842 21.5774 1.94842C22.1927 1.94842 22.7182 2.47383 22.7112 3.08912C22.7043 3.71133 22.172 4.22983 21.5636 4.20909ZM23.8796 6.53199C23.292 6.51125 22.8011 6.01348 22.7873 5.42585C22.7735 4.81747 23.3058 4.27131 23.9073 4.27823C24.5295 4.27823 25.0272 4.78982 25.0203 5.42585C25.0203 6.05496 24.5018 6.55273 23.8796 6.53199Z" fill="#005886"/>
</svg>
