<svg width="164" height="164" viewBox="0 0 164 164" fill="none" xmlns="http://www.w3.org/2000/svg">
<path d="M26.9928 88.1163L42.7962 103.928L55.0378 91.6867L39.2171 75.8923L51.4414 63.6683L67.2535 79.4713L79.4778 67.2474L63.683 51.4357L75.9073 39.2117L91.6934 55.032L103.926 42.7994L88.1143 26.9964L112.572 2.54842C114.193 0.927738 116.391 0.0172907 118.684 0.0172907C120.976 0.0172907 123.175 0.927738 124.796 2.54842L161.469 39.2204C163.09 40.8415 164 43.04 164 45.3324C164 47.6247 163.09 49.8232 161.469 51.4444L51.4414 161.469C49.8202 163.09 47.6216 164 45.3292 164C43.0368 164 40.8383 163.09 39.2171 161.469L2.54417 124.797C0.923442 123.176 0.0129689 120.977 0.0129689 118.685C0.0129689 116.393 0.923442 114.194 2.54417 112.573L26.9928 88.1163ZM100.347 137.012L137.029 100.34L159.818 123.128V159.809H123.145L100.347 137.012ZM26.9928 63.6597L2.53552 39.2117C1.73172 38.4088 1.09406 37.4554 0.658997 36.4059C0.223934 35.3564 0 34.2315 0 33.0954C0 31.9593 0.223934 30.8344 0.658997 29.7849C1.09406 28.7354 1.73172 27.782 2.53552 26.9791L26.9928 2.53113C28.614 0.910447 30.8125 0 33.1049 0C35.3973 0 37.5959 0.910447 39.2171 2.53113L63.683 26.9791L26.9928 63.6597Z" fill="#F7F7F7"/>
</svg>
